<mxfile host="app.diagrams.net" modified="2022-10-27T12:17:13.819Z" agent="5.0 (Windows NT 10.0; Win64; x64) AppleWebKit/537.36 (KHTML, like Gecko) Chrome/104.0.5112.124 YaBrowser/22.9.4.863 Yowser/2.5 Safari/537.36" etag="DgpMH3NG3UgrEzMfD62m" version="20.5.1" type="github">
  <diagram id="GGCkqb9-VZKLXiN2ZsAC" name="Страница 1">
    <mxGraphModel dx="2201" dy="789" grid="1" gridSize="10" guides="1" tooltips="1" connect="1" arrows="1" fold="1" page="1" pageScale="1" pageWidth="827" pageHeight="1169" math="0" shadow="0">
      <root>
        <mxCell id="0" />
        <mxCell id="1" parent="0" />
        <mxCell id="YOpsw5SN-aRoxDIqAuZM-21" style="edgeStyle=orthogonalEdgeStyle;rounded=0;orthogonalLoop=1;jettySize=auto;html=1;exitX=0;exitY=0.5;exitDx=0;exitDy=0;" edge="1" parent="1" source="YOpsw5SN-aRoxDIqAuZM-1" target="YOpsw5SN-aRoxDIqAuZM-16">
          <mxGeometry relative="1" as="geometry" />
        </mxCell>
        <mxCell id="YOpsw5SN-aRoxDIqAuZM-29" style="edgeStyle=orthogonalEdgeStyle;rounded=0;orthogonalLoop=1;jettySize=auto;html=1;exitX=0;exitY=0.75;exitDx=0;exitDy=0;" edge="1" parent="1" source="YOpsw5SN-aRoxDIqAuZM-1" target="YOpsw5SN-aRoxDIqAuZM-24">
          <mxGeometry relative="1" as="geometry" />
        </mxCell>
        <mxCell id="YOpsw5SN-aRoxDIqAuZM-35" style="edgeStyle=orthogonalEdgeStyle;rounded=0;orthogonalLoop=1;jettySize=auto;html=1;exitX=0.5;exitY=1;exitDx=0;exitDy=0;" edge="1" parent="1" source="YOpsw5SN-aRoxDIqAuZM-1" target="YOpsw5SN-aRoxDIqAuZM-30">
          <mxGeometry relative="1" as="geometry" />
        </mxCell>
        <mxCell id="YOpsw5SN-aRoxDIqAuZM-47" style="edgeStyle=orthogonalEdgeStyle;rounded=0;orthogonalLoop=1;jettySize=auto;html=1;exitX=1;exitY=0.25;exitDx=0;exitDy=0;" edge="1" parent="1" source="YOpsw5SN-aRoxDIqAuZM-1" target="YOpsw5SN-aRoxDIqAuZM-42">
          <mxGeometry relative="1" as="geometry" />
        </mxCell>
        <mxCell id="YOpsw5SN-aRoxDIqAuZM-1" value="Курсы " style="swimlane;rotation=0;strokeColor=#000000;" vertex="1" parent="1">
          <mxGeometry x="500" y="190" width="200" height="200" as="geometry" />
        </mxCell>
        <mxCell id="YOpsw5SN-aRoxDIqAuZM-3" value="Название&amp;nbsp;" style="text;html=1;align=center;verticalAlign=middle;resizable=0;points=[];autosize=1;strokeColor=none;fillColor=none;" vertex="1" parent="YOpsw5SN-aRoxDIqAuZM-1">
          <mxGeometry x="20" y="50" width="80" height="30" as="geometry" />
        </mxCell>
        <mxCell id="YOpsw5SN-aRoxDIqAuZM-4" value="Продажи&amp;nbsp;" style="text;html=1;align=center;verticalAlign=middle;resizable=0;points=[];autosize=1;strokeColor=none;fillColor=none;" vertex="1" parent="YOpsw5SN-aRoxDIqAuZM-1">
          <mxGeometry x="20" y="85" width="80" height="30" as="geometry" />
        </mxCell>
        <mxCell id="YOpsw5SN-aRoxDIqAuZM-5" value="Группы" style="text;html=1;align=center;verticalAlign=middle;resizable=0;points=[];autosize=1;strokeColor=none;fillColor=none;" vertex="1" parent="YOpsw5SN-aRoxDIqAuZM-1">
          <mxGeometry x="20" y="115" width="60" height="30" as="geometry" />
        </mxCell>
        <mxCell id="YOpsw5SN-aRoxDIqAuZM-6" value="поддержка&amp;nbsp;" style="text;html=1;align=center;verticalAlign=middle;resizable=0;points=[];autosize=1;strokeColor=none;fillColor=none;" vertex="1" parent="YOpsw5SN-aRoxDIqAuZM-1">
          <mxGeometry x="15" y="155" width="90" height="30" as="geometry" />
        </mxCell>
        <mxCell id="YOpsw5SN-aRoxDIqAuZM-2" style="edgeStyle=orthogonalEdgeStyle;rounded=0;orthogonalLoop=1;jettySize=auto;html=1;exitX=0.5;exitY=0;exitDx=0;exitDy=0;" edge="1" parent="1" source="YOpsw5SN-aRoxDIqAuZM-1" target="YOpsw5SN-aRoxDIqAuZM-1">
          <mxGeometry relative="1" as="geometry" />
        </mxCell>
        <mxCell id="YOpsw5SN-aRoxDIqAuZM-7" value="" style="endArrow=classic;html=1;rounded=0;entryX=-0.025;entryY=0.4;entryDx=0;entryDy=0;entryPerimeter=0;" edge="1" parent="1" target="YOpsw5SN-aRoxDIqAuZM-3">
          <mxGeometry width="50" height="50" relative="1" as="geometry">
            <mxPoint x="60" y="255" as="sourcePoint" />
            <mxPoint x="480" y="250" as="targetPoint" />
          </mxGeometry>
        </mxCell>
        <mxCell id="YOpsw5SN-aRoxDIqAuZM-10" value="Тренировка коучей " style="swimlane;strokeColor=#000000;" vertex="1" parent="1">
          <mxGeometry x="-140" y="170" width="200" height="200" as="geometry" />
        </mxCell>
        <mxCell id="YOpsw5SN-aRoxDIqAuZM-11" value="Обучение новых коуч тренеров" style="text;html=1;align=center;verticalAlign=middle;resizable=0;points=[];autosize=1;strokeColor=none;fillColor=none;" vertex="1" parent="YOpsw5SN-aRoxDIqAuZM-10">
          <mxGeometry y="40" width="200" height="30" as="geometry" />
        </mxCell>
        <mxCell id="YOpsw5SN-aRoxDIqAuZM-12" value="Повышение уровня знаний&amp;nbsp;" style="text;html=1;align=center;verticalAlign=middle;resizable=0;points=[];autosize=1;strokeColor=none;fillColor=none;" vertex="1" parent="YOpsw5SN-aRoxDIqAuZM-10">
          <mxGeometry y="65" width="180" height="30" as="geometry" />
        </mxCell>
        <mxCell id="YOpsw5SN-aRoxDIqAuZM-13" value="Новые психологи&amp;nbsp;" style="text;html=1;align=center;verticalAlign=middle;resizable=0;points=[];autosize=1;strokeColor=none;fillColor=none;" vertex="1" parent="YOpsw5SN-aRoxDIqAuZM-10">
          <mxGeometry y="85" width="120" height="30" as="geometry" />
        </mxCell>
        <mxCell id="YOpsw5SN-aRoxDIqAuZM-14" value="Трененги и конкурсы" style="text;html=1;align=center;verticalAlign=middle;resizable=0;points=[];autosize=1;strokeColor=none;fillColor=none;" vertex="1" parent="YOpsw5SN-aRoxDIqAuZM-10">
          <mxGeometry y="110" width="140" height="30" as="geometry" />
        </mxCell>
        <mxCell id="YOpsw5SN-aRoxDIqAuZM-15" value="Бесплатные мастер классы&amp;nbsp;" style="text;html=1;align=center;verticalAlign=middle;resizable=0;points=[];autosize=1;strokeColor=none;fillColor=none;" vertex="1" parent="YOpsw5SN-aRoxDIqAuZM-10">
          <mxGeometry x="-10" y="130" width="180" height="30" as="geometry" />
        </mxCell>
        <mxCell id="YOpsw5SN-aRoxDIqAuZM-16" value="площадка по продаже " style="swimlane;rotation=0;strokeColor=#000000;startSize=23;" vertex="1" parent="1">
          <mxGeometry x="80" y="400" width="200" height="200" as="geometry" />
        </mxCell>
        <mxCell id="YOpsw5SN-aRoxDIqAuZM-17" value="Регистрация" style="text;html=1;align=center;verticalAlign=middle;resizable=0;points=[];autosize=1;strokeColor=none;fillColor=none;" vertex="1" parent="YOpsw5SN-aRoxDIqAuZM-16">
          <mxGeometry x="15" y="50" width="90" height="30" as="geometry" />
        </mxCell>
        <mxCell id="YOpsw5SN-aRoxDIqAuZM-18" value="Курсы и ценна" style="text;html=1;align=center;verticalAlign=middle;resizable=0;points=[];autosize=1;strokeColor=none;fillColor=none;" vertex="1" parent="YOpsw5SN-aRoxDIqAuZM-16">
          <mxGeometry x="10" y="85" width="100" height="30" as="geometry" />
        </mxCell>
        <mxCell id="YOpsw5SN-aRoxDIqAuZM-19" value="Прямая связь с сотрудниками&amp;nbsp;" style="text;html=1;align=center;verticalAlign=middle;resizable=0;points=[];autosize=1;strokeColor=none;fillColor=none;" vertex="1" parent="YOpsw5SN-aRoxDIqAuZM-16">
          <mxGeometry y="115" width="190" height="30" as="geometry" />
        </mxCell>
        <mxCell id="YOpsw5SN-aRoxDIqAuZM-20" value="поддержка и помощь при покупке&amp;nbsp;&amp;nbsp;" style="text;html=1;align=center;verticalAlign=middle;resizable=0;points=[];autosize=1;strokeColor=none;fillColor=none;" vertex="1" parent="YOpsw5SN-aRoxDIqAuZM-16">
          <mxGeometry x="-10" y="145" width="220" height="30" as="geometry" />
        </mxCell>
        <mxCell id="YOpsw5SN-aRoxDIqAuZM-24" value="набор групп и распределение новичков " style="swimlane;rotation=0;strokeColor=#000000;" vertex="1" parent="1">
          <mxGeometry x="520" y="450" width="250" height="340" as="geometry" />
        </mxCell>
        <mxCell id="YOpsw5SN-aRoxDIqAuZM-25" value="проверка уровня клиента&amp;nbsp;" style="text;html=1;align=center;verticalAlign=middle;resizable=0;points=[];autosize=1;strokeColor=none;fillColor=none;" vertex="1" parent="YOpsw5SN-aRoxDIqAuZM-24">
          <mxGeometry x="20" y="30" width="170" height="30" as="geometry" />
        </mxCell>
        <mxCell id="YOpsw5SN-aRoxDIqAuZM-26" value="оценивание и просмотр кадров&amp;nbsp;" style="text;html=1;align=center;verticalAlign=middle;resizable=0;points=[];autosize=1;strokeColor=none;fillColor=none;" vertex="1" parent="YOpsw5SN-aRoxDIqAuZM-24">
          <mxGeometry x="20" y="60" width="200" height="30" as="geometry" />
        </mxCell>
        <mxCell id="YOpsw5SN-aRoxDIqAuZM-27" value="подсчет баллов&amp;nbsp;" style="text;html=1;align=center;verticalAlign=middle;resizable=0;points=[];autosize=1;strokeColor=none;fillColor=none;" vertex="1" parent="YOpsw5SN-aRoxDIqAuZM-24">
          <mxGeometry x="20" y="80" width="110" height="30" as="geometry" />
        </mxCell>
        <mxCell id="YOpsw5SN-aRoxDIqAuZM-28" value="установка уровня по баллам&amp;nbsp;" style="text;html=1;align=center;verticalAlign=middle;resizable=0;points=[];autosize=1;strokeColor=none;fillColor=none;" vertex="1" parent="YOpsw5SN-aRoxDIqAuZM-24">
          <mxGeometry x="20" y="105" width="190" height="30" as="geometry" />
        </mxCell>
        <mxCell id="YOpsw5SN-aRoxDIqAuZM-36" value="прикрепление к преподавателю" style="text;html=1;align=center;verticalAlign=middle;resizable=0;points=[];autosize=1;strokeColor=none;fillColor=none;" vertex="1" parent="YOpsw5SN-aRoxDIqAuZM-24">
          <mxGeometry x="20" y="130" width="200" height="30" as="geometry" />
        </mxCell>
        <mxCell id="YOpsw5SN-aRoxDIqAuZM-37" value="процесс начала обучения&amp;nbsp;" style="text;html=1;align=center;verticalAlign=middle;resizable=0;points=[];autosize=1;strokeColor=none;fillColor=none;" vertex="1" parent="YOpsw5SN-aRoxDIqAuZM-24">
          <mxGeometry x="15" y="155" width="170" height="30" as="geometry" />
        </mxCell>
        <mxCell id="YOpsw5SN-aRoxDIqAuZM-38" value="система оценивания&amp;nbsp;" style="text;html=1;align=center;verticalAlign=middle;resizable=0;points=[];autosize=1;strokeColor=none;fillColor=none;" vertex="1" parent="YOpsw5SN-aRoxDIqAuZM-24">
          <mxGeometry x="15" y="175" width="140" height="30" as="geometry" />
        </mxCell>
        <mxCell id="YOpsw5SN-aRoxDIqAuZM-39" value="Экзаменационная часть&amp;nbsp;" style="text;html=1;align=center;verticalAlign=middle;resizable=0;points=[];autosize=1;strokeColor=none;fillColor=none;" vertex="1" parent="YOpsw5SN-aRoxDIqAuZM-24">
          <mxGeometry x="15" y="200" width="160" height="30" as="geometry" />
        </mxCell>
        <mxCell id="YOpsw5SN-aRoxDIqAuZM-40" value="Выдача дополнительного материала" style="text;html=1;align=center;verticalAlign=middle;resizable=0;points=[];autosize=1;strokeColor=none;fillColor=none;" vertex="1" parent="YOpsw5SN-aRoxDIqAuZM-24">
          <mxGeometry x="5" y="225" width="230" height="30" as="geometry" />
        </mxCell>
        <mxCell id="YOpsw5SN-aRoxDIqAuZM-41" value="Выдача сертификата&amp;nbsp;&amp;nbsp;" style="text;html=1;align=center;verticalAlign=middle;resizable=0;points=[];autosize=1;strokeColor=none;fillColor=none;" vertex="1" parent="YOpsw5SN-aRoxDIqAuZM-24">
          <mxGeometry x="10" y="250" width="150" height="30" as="geometry" />
        </mxCell>
        <mxCell id="YOpsw5SN-aRoxDIqAuZM-30" value="Курсы " style="swimlane;rotation=0;strokeColor=#000000;" vertex="1" parent="1">
          <mxGeometry x="850" y="270" width="200" height="200" as="geometry" />
        </mxCell>
        <mxCell id="YOpsw5SN-aRoxDIqAuZM-31" value="Название&amp;nbsp;" style="text;html=1;align=center;verticalAlign=middle;resizable=0;points=[];autosize=1;strokeColor=none;fillColor=none;" vertex="1" parent="YOpsw5SN-aRoxDIqAuZM-30">
          <mxGeometry x="20" y="50" width="80" height="30" as="geometry" />
        </mxCell>
        <mxCell id="YOpsw5SN-aRoxDIqAuZM-32" value="Продажи&amp;nbsp;" style="text;html=1;align=center;verticalAlign=middle;resizable=0;points=[];autosize=1;strokeColor=none;fillColor=none;" vertex="1" parent="YOpsw5SN-aRoxDIqAuZM-30">
          <mxGeometry x="20" y="85" width="80" height="30" as="geometry" />
        </mxCell>
        <mxCell id="YOpsw5SN-aRoxDIqAuZM-33" value="Группы" style="text;html=1;align=center;verticalAlign=middle;resizable=0;points=[];autosize=1;strokeColor=none;fillColor=none;" vertex="1" parent="YOpsw5SN-aRoxDIqAuZM-30">
          <mxGeometry x="20" y="115" width="60" height="30" as="geometry" />
        </mxCell>
        <mxCell id="YOpsw5SN-aRoxDIqAuZM-34" value="поддержка&amp;nbsp;" style="text;html=1;align=center;verticalAlign=middle;resizable=0;points=[];autosize=1;strokeColor=none;fillColor=none;" vertex="1" parent="YOpsw5SN-aRoxDIqAuZM-30">
          <mxGeometry x="15" y="155" width="90" height="30" as="geometry" />
        </mxCell>
        <mxCell id="YOpsw5SN-aRoxDIqAuZM-42" value="Система поддержки " style="swimlane;rotation=0;strokeColor=#000000;startSize=23;" vertex="1" parent="1">
          <mxGeometry x="840" y="10" width="200" height="200" as="geometry" />
        </mxCell>
        <mxCell id="YOpsw5SN-aRoxDIqAuZM-43" value="вопрос ответ&amp;nbsp;" style="text;html=1;align=center;verticalAlign=middle;resizable=0;points=[];autosize=1;strokeColor=none;fillColor=none;" vertex="1" parent="YOpsw5SN-aRoxDIqAuZM-42">
          <mxGeometry x="10" y="30" width="100" height="30" as="geometry" />
        </mxCell>
        <mxCell id="YOpsw5SN-aRoxDIqAuZM-44" value="Написать на почту&amp;nbsp;" style="text;html=1;align=center;verticalAlign=middle;resizable=0;points=[];autosize=1;strokeColor=none;fillColor=none;" vertex="1" parent="YOpsw5SN-aRoxDIqAuZM-42">
          <mxGeometry x="10" y="60" width="130" height="30" as="geometry" />
        </mxCell>
        <mxCell id="YOpsw5SN-aRoxDIqAuZM-45" value="Позвонить на горячую линию&amp;nbsp;" style="text;html=1;align=center;verticalAlign=middle;resizable=0;points=[];autosize=1;strokeColor=none;fillColor=none;" vertex="1" parent="YOpsw5SN-aRoxDIqAuZM-42">
          <mxGeometry x="5" y="85" width="190" height="30" as="geometry" />
        </mxCell>
        <mxCell id="YOpsw5SN-aRoxDIqAuZM-46" value="Приехать в главный офис&amp;nbsp;" style="text;html=1;align=center;verticalAlign=middle;resizable=0;points=[];autosize=1;strokeColor=none;fillColor=none;" vertex="1" parent="YOpsw5SN-aRoxDIqAuZM-42">
          <mxGeometry x="5" y="115" width="170" height="30" as="geometry" />
        </mxCell>
      </root>
    </mxGraphModel>
  </diagram>
</mxfile>
